# 3ds Max Wavefront OBJ Exporter v0.97b - (c)2007 guruware
# File Created: 27.11.2019 15:22:30

mtllib LandPaper.mtl

#
# object Shape1
#

v  4.7917 6.9583 0.0000
v  -4.7917 6.9583 0.0000
v  -4.7917 6.9583 0.0394
v  4.7917 6.9583 0.0394
v  -4.7917 0.0082 0.0000
v  -4.7917 0.0082 0.0394
v  4.7917 0.0082 0.0000
v  4.7917 0.0082 0.0394
# 8 vertices

vn 0.5774 0.5774 -0.5774
vn -0.5774 0.5774 -0.5774
vn -0.5774 0.5774 0.5774
vn 0.5774 0.5774 0.5774
vn -0.5774 -0.5774 -0.5774
vn -0.5774 -0.5774 0.5774
vn 0.5774 -0.5774 -0.5774
vn 0.5774 -0.5774 0.5774
# 8 vertex normals

vt 0.0000 0.0000 0.0000
vt 0.2039 0.0000 0.0000
vt 0.2039 1.0000 0.0000
vt 0.0000 1.0000 0.0000
vt 0.5000 0.0000 0.0000
vt 0.5000 1.0000 0.0000
vt 0.7039 0.0000 0.0000
vt 0.7039 1.0000 0.0000
vt 1.0000 0.0000 0.0000
vt 1.0000 1.0000 0.0000
# 10 texture coords

o Shape1
g Shape1
usemtl 01___Default
s 1
f 1/1/1 2/2/2 3/3/3 4/4/4 
s 4
f 2/2/2 5/5/5 6/6/6 3/3/3 
s 2
f 5/5/5 7/7/7 8/8/8 6/6/6 
s 4
f 7/7/7 1/9/1 4/10/4 8/8/8 
s 16
f 5/1/5 2/4/2 1/10/1 7/9/7 
usemtl 02
f 6/1/6 8/9/8 4/10/4 3/4/3 
# 6 polygons

#
# object Shape02
#

v  4.7917 -0.0063 -0.0000
v  -4.7917 -0.0063 -0.0000
v  -4.7917 -0.0063 0.0394
v  4.7917 -0.0063 0.0394
v  -4.7917 -6.9583 -0.0000
v  -4.7917 -6.9583 0.0394
v  4.7917 -6.9583 -0.0000
v  4.7917 -6.9583 0.0394
# 8 vertices

vn 0.5774 0.5774 -0.5774
vn -0.5774 0.5774 -0.5774
vn -0.5774 0.5774 0.5774
vn 0.5774 0.5774 0.5774
vn -0.5774 -0.5774 -0.5774
vn -0.5774 -0.5774 0.5774
vn 0.5774 -0.5774 -0.5774
vn 0.5774 -0.5774 0.5774
# 8 vertex normals

vt 0.0000 0.0000 0.0000
vt 0.2039 0.0000 0.0000
vt 0.2039 1.0000 0.0000
vt 0.0000 1.0000 0.0000
vt 0.5000 0.0000 0.0000
vt 0.5000 1.0000 0.0000
vt 0.7039 0.0000 0.0000
vt 0.7039 1.0000 0.0000
vt 1.0000 0.0000 0.0000
vt 1.0000 1.0000 0.0000
# 10 texture coords

o Shape02
g Shape02
usemtl 03
s 1
f 9/11/9 10/12/10 11/13/11 12/14/12 
s 4
f 10/12/10 13/15/13 14/16/14 11/13/11 
s 2
f 13/15/13 15/17/15 16/18/16 14/16/14 
s 4
f 15/17/15 9/19/9 12/20/12 16/18/16 
s 16
f 13/11/13 10/14/10 9/20/9 15/19/15 
f 14/11/14 16/19/16 12/20/12 11/14/11 
# 6 polygons

